<?xml version="1.0" encoding="UTF-8"?>
<svg width="38px" height="36px" viewBox="0 0 38 36" version="1.1" xmlns="http://www.w3.org/2000/svg" xmlns:xlink="http://www.w3.org/1999/xlink">
    <!-- Generator: Sketch 52.6 (67491) - http://www.bohemiancoding.com/sketch -->
    <title>server-graphic</title>
    <desc>Created with Sketch.</desc>
    <g id="Page-1" stroke="none" stroke-width="1" fill="none" fill-rule="evenodd">
        <g id="deployments" transform="translate(-828.000000, -183.000000)" fill="#000000">
            <g id="deploy-steps" transform="translate(280.000000, 158.000000)">
                <g id="card" transform="translate(502.000000, 0.000000)">
                    <g id="server-graphic" transform="translate(46.000000, 25.000000)">
                        <path d="M36,3.99801292 C36,1.78956781 34.0848962,0 31.7225806,0 L6.28167042,0 C3.91595399,0 2,1.78917039 2,3.99801292 C2,6.20685544 3.91595399,8 6.28167042,8 L31.7225806,8 C34.0848962,8 36,6.20645802 36,3.99801292 Z M8.30687672,3.99801292 C8.30687672,4.75429707 7.65051263,5.36512668 6.84111028,5.36512668 C6.03510878,5.36512668 5.37661915,4.75429707 5.37661915,3.99801292 C5.37661915,3.24371585 6.03510878,2.62970691 6.84111028,2.62970691 C7.65008752,2.62970691 8.30687672,3.24371585 8.30687672,3.99801292 Z" id="Shape" fill-rule="nonzero"></path>
                        <path d="M36,14.9996024 C36,12.7890866 34.0848962,11 31.7225806,11 L6.28167042,11 C3.91595399,11 2,12.7890866 2,14.9996024 C2,17.2081304 3.91595399,18.9999999 6.28167042,18.9999999 L31.7225806,18.9999999 C34.0848962,19.0003975 36,17.2081304 36,14.9996024 Z M8.30687672,14.9996024 C8.30687672,15.7565848 7.65051263,16.3684524 6.84111028,16.3684524 C6.03510878,16.3684524 5.37661915,15.7565848 5.37661915,14.9996024 C5.37661915,14.2438127 6.03510878,13.63115 6.84111028,13.63115 C7.65008752,13.63115 8.30687672,14.2438127 8.30687672,14.9996024 Z" id="Shape" fill-rule="nonzero"></path>
                        <path d="M36,25 C36,22.7916915 34.0848962,21 31.7225806,21 L6.28167042,21 C3.91595399,21 2,22.792089 2,25 C2,27.2102962 3.91595399,29 6.28167042,29 L31.7225806,29 C34.0848962,29 36,27.2102962 36,25 Z M8.30687672,25 C8.30687672,25.7577022 7.65051263,26.368714 6.84111028,26.368714 C6.03510878,26.368714 5.37661915,25.7577022 5.37661915,25 C5.37661915,24.2442854 6.03510878,23.6324786 6.84111028,23.6324786 C7.65008752,23.6324786 8.30687672,24.244683 8.30687672,25 Z" id="Shape" fill-rule="nonzero"></path>
                        <rect id="Rectangle" x="27" y="34" width="11" height="1"></rect>
                        <rect id="Rectangle" x="0" y="34" width="11" height="1"></rect>
                        <polygon id="Path" points="18.0524258 30 19.9475742 30 19.9475742 33.0469772 26 33.0469772 26 36 12 36 12 33.0469772 18.0524258 33.0469772"></polygon>
                    </g>
                </g>
            </g>
        </g>
    </g>
</svg>