<?xml version="1.0" encoding="UTF-8"?>
<svg width="100px" height="69px" viewBox="0 0 100 69" version="1.1" xmlns="http://www.w3.org/2000/svg" xmlns:xlink="http://www.w3.org/1999/xlink">
    <title>vapor-red-logo</title>
    <desc>Created with Sketch.</desc>
    <g id="vapor-red-logo" stroke="none" stroke-width="1" fill="none" fill-rule="evenodd">
        <path d="M75.8603974,5.68434189e-14 C75.8603974,5.68434189e-14 100,30.7912172 100,44.385455 C100,57.9796928 89.1749001,69 75.8214626,69 C62.4680251,69 51.6429253,57.9796928 51.6429253,44.385455 C51.6429253,30.7912172 75.8603974,5.68434189e-14 75.8603974,5.68434189e-14 Z M40.9289345,35.2414705 C40.9289345,37.2403738 40.6543693,39.0911823 40.1052306,40.7939518 C39.5560918,42.4967212 38.7873092,43.95886 37.7988595,45.180412 C36.8104098,46.401964 35.6206271,47.3582151 34.2294757,48.049194 C32.8383242,48.7401729 31.3129618,49.0856572 29.6533425,49.0856572 C28.5794713,49.0856572 27.5727321,48.9869474 26.6330947,48.7895248 C25.6934573,48.5921023 24.7721384,48.2898036 23.8691103,47.8826196 C22.9660822,47.4754356 22.0752705,46.9633785 21.1966486,46.3464331 C20.3180266,45.7294876 19.415012,44.9891642 18.4875778,44.1254406 C17.2916757,43.1383278 16.1446031,42.373327 15.0463257,41.830415 C13.9480482,41.287503 12.8253815,41.016051 11.6782917,41.016051 C11.0193252,41.016051 10.3847745,41.1826238 9.77462032,41.5157744 C9.16446619,41.8489249 8.62143716,42.293119 8.14551693,42.8483699 C7.66959671,43.4036208 7.29130682,44.039065 7.01063592,44.7547218 C6.72996502,45.4703785 6.58963168,46.2107019 6.58963168,46.9757143 L0,46.1613504 C0,44.1624471 0.268463791,42.3301466 0.805399427,40.6643939 C1.34233506,38.9986412 2.10501629,37.5673492 3.09346598,36.370475 C4.08191567,35.1736008 5.26559694,34.2420272 6.64454527,33.5757261 C8.02349361,32.909425 9.54275461,32.5762795 11.2023738,32.5762795 C13.3257102,32.5762795 15.2842756,32.9957961 17.0781288,33.8348419 C18.8719819,34.6738877 20.6719096,35.8954214 22.4779658,37.4994796 C23.6738679,38.5359479 24.814839,39.3132875 25.9009134,39.8315217 C26.9869877,40.3497559 28.0791473,40.6088691 29.1774247,40.6088691 C29.8363912,40.6088691 30.458739,40.4361269 31.044487,40.0906375 C31.630235,39.745148 32.1427568,39.2886152 32.5820677,38.7210254 C33.0213787,38.1534356 33.3752628,37.5056526 33.6437306,36.777657 C33.9121984,36.0496614 34.0464303,35.3031686 34.0464303,34.5381562 L40.9289345,35.2414705 Z" id="Combined-Shape" fill="#FFFFFF"></path>
    </g>
</svg>